<svg width="48" height="48" viewBox="0 0 48 48" fill="none" xmlns="http://www.w3.org/2000/svg">
<path d="M24 0C37.2548 0 48 10.7452 48 24C48 37.2548 37.2548 48 24 48C10.7452 48 0 37.2548 0 24C0 10.7452 10.7452 0 24 0ZM24 24.4102C21.3478 24.4102 18.8041 24.6284 16.9287 26.4912C15.0535 28.3539 14.0001 30.8804 14 33.5146C14 36.1491 24 35.998 24 35.998C24 35.998 33.9988 36.1495 34 33.5156C34 30.8812 32.9466 28.354 31.0713 26.4912C29.1959 24.6284 26.6522 24.4102 24 24.4102ZM24 12C21.0085 12 18.583 14.4093 18.583 17.3809C18.5833 20.3522 21.0086 22.7607 24 22.7607C26.9914 22.7607 29.4167 20.3522 29.417 17.3809C29.417 14.4093 26.9915 12 24 12Z" fill="#FDFFFD"/>
</svg>
