<svg width="48" height="48" viewBox="0 0 48 48" fill="none" xmlns="http://www.w3.org/2000/svg">
<path d="M24 0C37.2548 0 48 10.7452 48 24C48 37.2548 37.2548 48 24 48C10.7452 48 0 37.2548 0 24C0 10.7452 10.7452 0 24 0ZM16 28.7373C14.8954 28.7373 14 29.6327 14 30.7373V32C14 33.1046 14.8954 34 16 34H21.4736C22.5782 34 23.4736 33.1046 23.4736 32V30.7373C23.4736 29.6327 22.5782 28.7373 21.4736 28.7373H16ZM16 21.3682C14.8955 21.3682 14.0001 22.2637 14 23.3682V24.6318C14.0001 25.7363 14.8955 26.6318 16 26.6318H32C33.1045 26.6318 33.9999 25.7363 34 24.6318V23.3682C33.9999 22.2637 33.1045 21.3682 32 21.3682H16ZM16 14C14.8954 14 14 14.8954 14 16V17.2627C14 18.3673 14.8954 19.2627 16 19.2627H26C27.1046 19.2627 28 18.3673 28 17.2627V16C28 14.8954 27.1046 14 26 14H16Z" fill="#FDFFFD"/>
</svg>
