<svg width="48" height="49" viewBox="0 0 48 49" fill="none" xmlns="http://www.w3.org/2000/svg">
<path d="M24 1C37.2548 1 48 11.7452 48 25C48 38.2548 37.2548 49 24 49C10.7452 49 0 38.2548 0 25C0 11.7452 10.7452 1 24 1ZM23 12C20.7909 12 19 13.7909 19 16H13.833C13.373 16.0002 13.0002 16.373 13 16.833V21C13 21.4602 13.377 21.8251 13.8281 21.916C15.7325 22.3001 17.167 23.9824 17.167 26C17.167 28.0176 15.7325 29.6999 13.8281 30.084C13.377 30.1749 13 30.5398 13 31V35.167C13.0002 35.627 13.373 35.9998 13.833 36H18.2363C18.6324 35.9998 18.965 35.7166 19.1064 35.3467C19.7051 33.7798 21.2227 32.667 23 32.667C24.7774 32.667 26.2948 33.7797 26.8936 35.3467C27.035 35.7168 27.3684 35.9999 27.7646 36H32.167C32.627 35.9998 32.9998 35.627 33 35.167V30C35.2091 30 37 28.2091 37 26C37 23.7909 35.2091 22 33 22V16.833C32.9998 16.373 32.627 16.0002 32.167 16H27C27 13.7909 25.2091 12 23 12Z" fill="#FDFFFD"/>
</svg>
