<svg width="48" height="48" viewBox="0 0 48 48" fill="none" xmlns="http://www.w3.org/2000/svg">
<path d="M24 0C37.2548 0 48 10.7452 48 24C48 37.2548 37.2548 48 24 48C10.7452 48 0 37.2548 0 24C0 10.7452 10.7452 0 24 0ZM14.1543 12V18.25H10V20.333H12.0771V22.417H10V24.5H12.0771V26.583H14.1543V37H18.3076V34.917H26.6152V37H30.7695V32.833H34.9229V34.917H32.8457V37H37V28.667H34.9229V26.583H32.8457V24.5H28.6924V22.417H30.7695V20.333H28.6924V18.25H26.6152V12H24.5381V14.083H22.4619V16.167H18.3076V14.083H16.2305V12H14.1543ZM24.5381 20.333V22.417H22.4619V24.5H18.3076V22.417H22.4619V20.333H24.5381ZM16.2305 20.333V22.417H14.1543V20.333H16.2305Z" fill="#FDFFFD"/>
</svg>
