<svg width="27" height="25" viewBox="0 0 27 25" fill="none" xmlns="http://www.w3.org/2000/svg">
<path d="M0 10.4167H2.07692V12.5H0V10.4167Z" fill="#9CA09C"/>
<path d="M2.07692 10.4167H4.15385V12.5H2.07692V10.4167Z" fill="#9CA09C"/>
<path d="M2.07692 8.33333H4.15385V10.4167H2.07692V8.33333Z" fill="#9CA09C"/>
<path d="M2.07692 6.25H4.15385V8.33333H2.07692V6.25Z" fill="#9CA09C"/>
<path d="M4.15385 6.25H6.23077V8.33333H4.15385V6.25Z" fill="#9CA09C"/>
<path d="M4.15385 4.16667H6.23077V6.25H4.15385V4.16667Z" fill="#9CA09C"/>
<path d="M4.15385 2.08333H6.23077V4.16667H4.15385V2.08333Z" fill="#9CA09C"/>
<path d="M6.23077 2.08333H8.30769V4.16667H6.23077V2.08333Z" fill="#9CA09C"/>
<path d="M6.23077 4.16667H8.30769V6.25H6.23077V4.16667Z" fill="#9CA09C"/>
<path d="M8.30769 4.16667H10.3846V6.25H8.30769V4.16667Z" fill="#9CA09C"/>
<path d="M12.4615 2.08333H14.5385V4.16667H12.4615V2.08333Z" fill="#9CA09C"/>
<path d="M14.5385 2.08333H16.6154V4.16667H14.5385V2.08333Z" fill="#9CA09C"/>
<path d="M10.3846 4.16667H12.4615V6.25H10.3846V4.16667Z" fill="#9CA09C"/>
<path d="M14.5385 0H16.6154V2.08333H14.5385V0Z" fill="#9CA09C"/>
<path d="M12.4615 4.16667H14.5385V6.25H12.4615V4.16667Z" fill="#9CA09C"/>
<path d="M12.4615 6.25H14.5385V8.33333H12.4615V6.25Z" fill="#9CA09C"/>
<path d="M14.5385 4.16667H16.6154V6.25H14.5385V4.16667Z" fill="#9CA09C"/>
<path d="M14.5385 6.25H16.6154V8.33333H14.5385V6.25Z" fill="#9CA09C"/>
<path d="M6.23077 6.25H8.30769V8.33333H6.23077V6.25Z" fill="#9CA09C"/>
<path d="M8.30769 6.25H10.3846V8.33333H8.30769V6.25Z" fill="#9CA09C"/>
<path d="M6.23077 8.33333H8.30769V10.4167H6.23077V8.33333Z" fill="#9CA09C"/>
<path d="M8.30769 8.33333H10.3846V10.4167H8.30769V8.33333Z" fill="#9CA09C"/>
<path d="M10.3846 8.33333H12.4615V10.4167H10.3846V8.33333Z" fill="#9CA09C"/>
<path d="M10.3846 6.25H12.4615V8.33333H10.3846V6.25Z" fill="#9CA09C"/>
<path d="M6.23077 10.4167H8.30769V12.5H6.23077V10.4167Z" fill="#9CA09C"/>
<path d="M6.23077 12.5H8.30769V14.5833H6.23077V12.5Z" fill="#9CA09C"/>
<path d="M6.23077 14.5833H8.30769V16.6667H6.23077V14.5833Z" fill="#9CA09C"/>
<path d="M6.23077 20.8333H8.30769V22.9167H6.23077V20.8333Z" fill="#9CA09C"/>
<path d="M6.23077 22.9167H8.30769V25H6.23077V22.9167Z" fill="#9CA09C"/>
<path d="M6.23077 18.75H8.30769V20.8333H6.23077V18.75Z" fill="#9CA09C"/>
<path d="M6.23077 16.6667H8.30769V18.75H6.23077V16.6667Z" fill="#9CA09C"/>
<path d="M8.30769 12.5H10.3846V14.5833H8.30769V12.5Z" fill="#9CA09C"/>
<path d="M8.30769 14.5833H10.3846V16.6667H8.30769V14.5833Z" fill="#9CA09C"/>
<path d="M8.30769 20.8333H10.3846V22.9167H8.30769V20.8333Z" fill="#9CA09C"/>
<path d="M8.30769 18.75H10.3846V20.8333H8.30769V18.75Z" fill="#9CA09C"/>
<path d="M8.30769 16.6667H10.3846V18.75H8.30769V16.6667Z" fill="#9CA09C"/>
<path d="M10.3846 12.5H12.4615V14.5833H10.3846V12.5Z" fill="#9CA09C"/>
<path d="M10.3846 14.5833H12.4615V16.6667H10.3846V14.5833Z" fill="#9CA09C"/>
<path d="M10.3846 20.8333H12.4615V22.9167H10.3846V20.8333Z" fill="#9CA09C"/>
<path d="M10.3846 18.75H12.4615V20.8333H10.3846V18.75Z" fill="#9CA09C"/>
<path d="M10.3846 16.6667H12.4615V18.75H10.3846V16.6667Z" fill="#9CA09C"/>
<path d="M18.6923 16.6667H20.7692V18.75H18.6923V16.6667Z" fill="#9CA09C"/>
<path d="M18.6923 18.75H20.7692V20.8333H18.6923V18.75Z" fill="#9CA09C"/>
<path d="M12.4615 12.5H14.5385V14.5833H12.4615V12.5Z" fill="#9CA09C"/>
<path d="M12.4615 14.5833H14.5385V16.6667H12.4615V14.5833Z" fill="#9CA09C"/>
<path d="M18.6923 14.5833H20.7692V16.6667H18.6923V14.5833Z" fill="#9CA09C"/>
<path d="M12.4615 20.8333H14.5385V22.9167H12.4615V20.8333Z" fill="#9CA09C"/>
<path d="M12.4615 18.75H14.5385V20.8333H12.4615V18.75Z" fill="#9CA09C"/>
<path d="M12.4615 16.6667H14.5385V18.75H12.4615V16.6667Z" fill="#9CA09C"/>
<path d="M20.7692 16.6667H22.8462V18.75H20.7692V16.6667Z" fill="#9CA09C"/>
<path d="M20.7692 18.75H22.8462V20.8333H20.7692V18.75Z" fill="#9CA09C"/>
<path d="M12.4615 10.4167H14.5385V12.5H12.4615V10.4167Z" fill="#9CA09C"/>
<path d="M14.5385 10.4167H16.6154V12.5H14.5385V10.4167Z" fill="#9CA09C"/>
<path d="M14.5385 12.5H16.6154V14.5833H14.5385V12.5Z" fill="#9CA09C"/>
<path d="M14.5385 14.5833H16.6154V16.6667H14.5385V14.5833Z" fill="#9CA09C"/>
<path d="M20.7692 14.5833H22.8462V16.6667H20.7692V14.5833Z" fill="#9CA09C"/>
<path d="M14.5385 20.8333H16.6154V22.9167H14.5385V20.8333Z" fill="#9CA09C"/>
<path d="M14.5385 18.75H16.6154V20.8333H14.5385V18.75Z" fill="#9CA09C"/>
<path d="M14.5385 16.6667H16.6154V18.75H14.5385V16.6667Z" fill="#9CA09C"/>
<path d="M22.8462 16.6667H24.9231V18.75H22.8462V16.6667Z" fill="#9CA09C"/>
<path d="M22.8462 18.75H24.9231V20.8333H22.8462V18.75Z" fill="#9CA09C"/>
<path d="M14.5385 8.33333H16.6154V10.4167H14.5385V8.33333Z" fill="#9CA09C"/>
<path d="M16.6154 8.33333H18.6923V10.4167H16.6154V8.33333Z" fill="#9CA09C"/>
<path d="M16.6154 10.4167H18.6923V12.5H16.6154V10.4167Z" fill="#9CA09C"/>
<path d="M16.6154 12.5H18.6923V14.5833H16.6154V12.5Z" fill="#9CA09C"/>
<path d="M16.6154 14.5833H18.6923V16.6667H16.6154V14.5833Z" fill="#9CA09C"/>
<path d="M22.8462 14.5833H24.9231V16.6667H22.8462V14.5833Z" fill="#9CA09C"/>
<path d="M16.6154 20.8333H18.6923V22.9167H16.6154V20.8333Z" fill="#9CA09C"/>
<path d="M16.6154 22.9167H18.6923V25H16.6154V22.9167Z" fill="#9CA09C"/>
<path d="M18.6923 22.9167H20.7692V25H18.6923V22.9167Z" fill="#9CA09C"/>
<path d="M18.6923 20.8333H20.7692V22.9167H18.6923V20.8333Z" fill="#9CA09C"/>
<path d="M16.6154 18.75H18.6923V20.8333H16.6154V18.75Z" fill="#9CA09C"/>
<path d="M16.6154 16.6667H18.6923V18.75H16.6154V16.6667Z" fill="#9CA09C"/>
<path d="M24.9231 16.6667H27V18.75H24.9231V16.6667Z" fill="#9CA09C"/>
<path d="M24.9231 20.8333H27V22.9167H24.9231V20.8333Z" fill="#9CA09C"/>
<path d="M24.9231 18.75H27V20.8333H24.9231V18.75Z" fill="#9CA09C"/>
<path d="M24.9231 22.9167H27V25H24.9231V22.9167Z" fill="#9CA09C"/>
<path d="M22.8462 22.9167H24.9231V25H22.8462V22.9167Z" fill="#9CA09C"/>
<path d="M18.6923 12.5H20.7692V14.5833H18.6923V12.5Z" fill="#9CA09C"/>
<path d="M20.7692 12.5H22.8462V14.5833H20.7692V12.5Z" fill="#9CA09C"/>
<path d="M18.6923 8.33333H20.7692V10.4167H18.6923V8.33333Z" fill="#9CA09C"/>
<path d="M16.6154 6.25H18.6923V8.33333H16.6154V6.25Z" fill="#9CA09C"/>
<path d="M4.15385 0H6.23077V2.08333H4.15385V0Z" fill="#9CA09C"/>
<path d="M0 6.25H2.07692V8.33333H0V6.25Z" fill="#9CA09C"/>
<path d="M2.07692 12.5H4.15385V14.5833H2.07692V12.5Z" fill="#9CA09C"/>
<path d="M4.15385 12.5H6.23077V14.5833H4.15385V12.5Z" fill="#9CA09C"/>
<path d="M4.15385 14.5833H6.23077V16.6667H4.15385V14.5833Z" fill="#9CA09C"/>
<path d="M4.15385 20.8333H6.23077V22.9167H4.15385V20.8333Z" fill="#9CA09C"/>
<path d="M4.15385 22.9167H6.23077V25H4.15385V22.9167Z" fill="#9CA09C"/>
<path d="M4.15385 18.75H6.23077V20.8333H4.15385V18.75Z" fill="#9CA09C"/>
<path d="M4.15385 16.6667H6.23077V18.75H4.15385V16.6667Z" fill="#9CA09C"/>
<path d="M4.15385 10.4167H6.23077V12.5H4.15385V10.4167Z" fill="#9CA09C"/>
</svg>
