<svg width="48" height="48" viewBox="0 0 48 48" fill="none" xmlns="http://www.w3.org/2000/svg">
<path d="M37 25C37 27.2091 35.2091 29 33 29C30.7909 29 29 27.2091 29 25C29 22.7909 30.7909 21 33 21C35.2091 21 37 22.7909 37 25Z" fill="#9CA09C"/>
<path d="M37 25C37 27.2091 35.2091 29 33 29C30.7909 29 29 27.2091 29 25C29 22.7909 30.7909 21 33 21C35.2091 21 37 22.7909 37 25Z" fill="#9CA09C"/>
<path d="M27.7648 35C27.3685 35 27.0354 34.7167 26.8939 34.3465C26.2951 32.7795 24.7774 31.6667 23 31.6667C21.2227 31.6667 19.7056 32.7796 19.1069 34.3465C18.9655 34.7167 18.6323 35 18.236 35H13.8333C13.3731 35 13 34.6269 13 34.1667L13 30C13 29.5398 13.3769 29.1754 13.828 29.0844C15.7325 28.7004 17.1667 27.0177 17.1667 25C17.1667 22.9823 15.7325 21.2996 13.828 20.9156C13.3769 20.8246 13 20.4602 13 20L13 15.8333C13 15.3731 13.3731 15 13.8333 15L32.1667 15C32.6269 15 33 15.3731 33 15.8333V34.1667C33 34.6269 32.6269 35 32.1667 35H27.7648Z" fill="#9CA09C"/>
<path d="M27 15C27 17.2091 25.2091 19 23 19C20.7909 19 19 17.2091 19 15C19 12.7909 20.7909 11 23 11C25.2091 11 27 12.7909 27 15Z" fill="#9CA09C"/>
</svg>
