<svg width="20" height="24" viewBox="0 0 20 24" fill="none" xmlns="http://www.w3.org/2000/svg">
<path d="M15.4167 5.3804C15.4167 8.35191 12.9915 10.7608 10 10.7608C7.00846 10.7608 4.58333 8.35191 4.58333 5.3804C4.58333 2.40889 7.00846 0 10 0C12.9915 0 15.4167 2.40889 15.4167 5.3804Z" fill="#9CA09C"/>
<path d="M20 21.5151C20 18.8807 18.9464 16.3542 17.0711 14.4914C15.1957 12.6286 12.6522 12.4098 10 12.4098C7.34784 12.4098 4.8043 12.6286 2.92893 14.4914C1.05357 16.3542 4.00466e-07 18.8807 0 21.5151C-4.00466e-07 24.1495 10 23.9984 10 23.9984C10 23.9984 20 24.1495 20 21.5151Z" fill="#9CA09C"/>
</svg>
