<svg width="20" height="20" viewBox="0 0 20 20" fill="none" xmlns="http://www.w3.org/2000/svg">
<path d="M7.47369 14.7368C8.57825 14.7368 9.47368 15.6323 9.47368 16.7368V18C9.47368 19.1046 8.57825 20 7.47368 20L2 20C0.89543 20 3.99792e-08 19.1046 8.92961e-08 18L1.45694e-07 16.7368C1.95011e-07 15.6323 0.895431 14.7368 2 14.7368L7.47369 14.7368Z" fill="#9CA09C"/>
<path d="M18.0001 7.36842C19.1046 7.36842 20.0001 8.26385 20.0001 9.36842V10.6316C20.0001 11.7361 19.1046 12.6316 18.0001 12.6316L2.00005 12.6316C0.895482 12.6316 5.15309e-05 11.7361 5.15821e-05 10.6316L5.16407e-05 9.36842C5.16919e-05 8.26385 0.895482 7.36842 2.00005 7.36842L18.0001 7.36842Z" fill="#9CA09C"/>
<path d="M12.0001 4.69787e-07C13.1046 5.1303e-07 14.0001 0.895431 14.0001 2V3.26316C14.0001 4.36773 13.1046 5.26316 12.0001 5.26316L2.00005 5.26316C0.895482 5.26316 5.15202e-05 4.36773 5.15741e-05 3.26316L5.16358e-05 2C5.16897e-05 0.895431 0.895482 3.50551e-08 2.00005 7.82978e-08L12.0001 4.69787e-07Z" fill="#9CA09C"/>
</svg>
